<svg width="400" height="400" xmlns="http://www.w3.org/2000/svg">
  <!-- Background -->
  <rect width="400" height="400" fill="white" stroke="black" stroke-width="2"/>
  
  <!-- Bobbie goods outline - a simple character -->
  <!-- Head -->
  <circle cx="200" cy="120" r="60" fill="none" stroke="black" stroke-width="3"/>
  
  <!-- Eyes -->
  <circle cx="185" cy="110" r="8" fill="none" stroke="black" stroke-width="2"/>
  <circle cx="215" cy="110" r="8" fill="none" stroke="black" stroke-width="2"/>
  
  <!-- Nose -->
  <ellipse cx="200" cy="125" rx="5" ry="3" fill="none" stroke="black" stroke-width="2"/>
  
  <!-- Mouth -->
  <path d="M 185 140 Q 200 150 215 140" fill="none" stroke="black" stroke-width="2"/>
  
  <!-- Body -->
  <rect x="160" y="180" width="80" height="100" fill="none" stroke="black" stroke-width="3"/>
  
  <!-- Arms -->
  <line x1="160" y1="200" x2="120" y2="220" stroke="black" stroke-width="3"/>
  <line x1="240" y1="200" x2="280" y2="220" stroke="black" stroke-width="3"/>
  
  <!-- Hands -->
  <circle cx="115" cy="225" r="8" fill="none" stroke="black" stroke-width="2"/>
  <circle cx="285" cy="225" r="8" fill="none" stroke="black" stroke-width="2"/>
  
  <!-- Legs -->
  <line x1="180" y1="280" x2="170" y2="320" stroke="black" stroke-width="3"/>
  <line x1="220" y1="280" x2="230" y2="320" stroke="black" stroke-width="3"/>
  
  <!-- Feet -->
  <ellipse cx="165" cy="325" rx="12" ry="8" fill="none" stroke="black" stroke-width="2"/>
  <ellipse cx="235" cy="325" rx="12" ry="8" fill="none" stroke="black" stroke-width="2"/>
  
  <!-- Decorative elements -->
  <circle cx="200" cy="210" r="15" fill="none" stroke="black" stroke-width="2"/>
  <circle cx="200" cy="250" r="15" fill="none" stroke="black" stroke-width="2"/>
  
  <!-- Accessories -->
  <path d="M 140 100 Q 160 90 180 100" fill="none" stroke="black" stroke-width="2"/>
  <path d="M 220 100 Q 240 90 260 100" fill="none" stroke="black" stroke-width="2"/>
</svg>
