<svg width="400" height="400" viewBox="0 0 400 400" xmlns="http://www.w3.org/2000/svg">
  <rect width="400" height="400" fill="white"/>
  <g stroke="#000" stroke-width="3" fill="none" stroke-linecap="round" stroke-linejoin="round">
    <!-- Cute bear-like character -->
    <!-- Ears -->
    <circle cx="150" cy="105" r="22"/>
    <circle cx="250" cy="105" r="22"/>
    <!-- Head -->
    <path d="M120 110 Q120 70 200 70 Q280 70 280 110 Q300 150 280 175 Q260 205 200 205 Q140 205 120 175 Q100 150 120 110 Z"/>
    <!-- Eyes -->
    <circle cx="170" cy="130" r="10"/>
    <circle cx="230" cy="130" r="10"/>
    <!-- Eye sparkles -->
    <path d="M166 124 l4 -4"/>
    <path d="M226 124 l4 -4"/>
    <!-- Nose + mouth -->
    <ellipse cx="200" cy="145" rx="6" ry="4"/>
    <path d="M190 158 Q200 165 210 158"/>

    <!-- Body -->
    <path d="M140 210 Q140 250 160 285 Q180 320 200 320 Q220 320 240 285 Q260 250 260 210 Z"/>

    <!-- Arms -->
    <path d="M140 225 Q120 235 110 255"/>
    <path d="M260 225 Q280 235 290 255"/>

    <!-- Legs -->
    <path d="M175 320 Q170 340 170 350 Q170 360 185 360 Q200 360 200 350 Q200 340 195 320"/>
    <path d="M205 320 Q200 340 200 350 Q200 360 215 360 Q230 360 230 350 Q230 340 225 320"/>

    <!-- Shirt emblem (star) -->
    <path d="M200 245 l7 12 l14 2 l-10 9 l3 14 l-14 -7 l-14 7 l3 -14 l-10 -9 l14 -2 Z"/>

    <!-- Surrounding cute doodles -->
    <!-- Hearts -->
    <path d="M85 95 C80 85 95 75 100 85 C105 75 120 85 115 95 C110 105 95 110 85 95 Z"/>
    <path d="M315 95 C310 85 325 75 330 85 C335 75 350 85 345 95 C340 105 325 110 315 95 Z"/>

    <!-- Stars -->
    <path d="M70 300 l6 10 l12 2 l-9 8 l2 12 l-11 -6 l-11 6 l2 -12 l-9 -8 l12 -2 Z"/>
    <path d="M330 300 l6 10 l12 2 l-9 8 l2 12 l-11 -6 l-11 6 l2 -12 l-9 -8 l12 -2 Z"/>

    <!-- Daisies -->
    <circle cx="90" cy="200" r="10"/>
    <path d="M90 182 Q86 190 90 200"/>
    <path d="M72 200 Q80 196 90 200"/>
    <path d="M90 218 Q86 210 90 200"/>
    <path d="M108 200 Q100 204 90 200"/>

    <circle cx="310" cy="210" r="10"/>
    <path d="M310 192 Q306 200 310 210"/>
    <path d="M292 210 Q300 206 310 210"/>
    <path d="M310 228 Q306 220 310 210"/>
    <path d="M328 210 Q320 214 310 210"/>

    <!-- Small sparkles -->
    <path d="M45 150 l5 8 l9 1 l-7 6 l1 9 l-8 -4 l-8 4 l1 -9 l-7 -6 l9 -1 Z"/>
    <path d="M355 155 l5 8 l9 1 l-7 6 l1 9 l-8 -4 l-8 4 l1 -9 l-7 -6 l9 -1 Z"/>
  </g>
</svg>
